<svg xmlns="http://www.w3.org/2000/svg" xmlns:xlink="http://www.w3.org/1999/xlink" width="3000" zoomAndPan="magnify" viewBox="0 0 2250 809.999993" height="1080" preserveAspectRatio="xMidYMid meet" version="1.2"><defs><filter x="0%" y="0%" width="100%" filterUnits="objectBoundingBox" id="1bc0740582" height="100%"><feColorMatrix values="0 0 0 0 1 0 0 0 0 1 0 0 0 0 1 0 0 0 1 0" type="matrix" in="SourceGraphic"/></filter><clipPath id="32e791de56"><path d="M 143.824219 0.855469 L 320.488281 0.855469 L 320.488281 321.105469 L 143.824219 321.105469 Z M 143.824219 0.855469 "/></clipPath><clipPath id="9688956bc6"><rect x="0" width="321" y="0" height="322"/></clipPath></defs><g id="ffdaaf3128"><g mask="url(#3863db4698)" transform="matrix(1,0,0,1,1909,248)"><g clip-path="url(#9688956bc6)"><g clip-rule="nonzero" clip-path="url(#32e791de56)"><path style=" stroke:none;fill-rule:nonzero;fill:#01b3ef;fill-opacity:1;" d="M 160.363281 227.023438 C 123.890625 227.023438 94.320312 197.457031 94.320312 160.980469 C 94.320312 124.507812 123.890625 94.941406 160.363281 94.941406 C 196.835938 94.941406 226.40625 124.507812 226.40625 160.980469 C 226.40625 197.457031 196.835938 227.023438 160.363281 227.023438 Z M 311.839844 130.105469 L 282.273438 126.605469 C 279.605469 117.105469 275.816406 107.859375 270.886719 99.074219 L 289.308594 75.703125 C 292.382812 71.804688 292.054688 66.21875 288.542969 62.710938 L 258.632812 32.800781 C 255.125 29.292969 249.542969 28.960938 245.640625 32.035156 L 222.269531 50.457031 C 213.488281 45.53125 204.234375 41.738281 194.742188 39.070312 L 191.242188 9.5 C 190.65625 4.570312 186.476562 0.855469 181.511719 0.855469 L 139.214844 0.855469 C 134.25 0.855469 130.070312 4.570312 129.488281 9.5 L 125.984375 39.070312 C 116.488281 41.738281 107.238281 45.53125 98.457031 50.457031 L 75.082031 32.035156 C 71.183594 28.960938 65.601562 29.292969 62.089844 32.800781 L 32.183594 62.710938 C 28.671875 66.21875 28.34375 71.804688 31.417969 75.703125 L 49.839844 99.074219 C 44.910156 107.859375 41.117188 117.105469 38.453125 126.605469 L 8.882812 130.105469 C 3.953125 130.6875 0.238281 134.867188 0.238281 139.832031 L 0.238281 182.128906 C 0.238281 187.09375 3.953125 191.273438 8.882812 191.859375 L 38.453125 195.359375 C 41.117188 204.855469 44.910156 214.105469 49.839844 222.890625 L 31.417969 246.257812 C 28.34375 250.160156 28.671875 255.742188 32.183594 259.25 L 62.089844 289.160156 C 65.601562 292.671875 71.183594 293.003906 75.082031 289.925781 L 98.457031 271.503906 C 107.238281 276.433594 116.488281 280.222656 125.984375 282.894531 L 129.488281 312.460938 C 130.070312 317.394531 134.25 321.105469 139.214844 321.105469 L 180.8125 321.105469 C 185.6875 321.105469 189.824219 317.519531 190.507812 312.6875 L 194.742188 282.894531 C 204.234375 280.222656 213.488281 276.433594 222.269531 271.503906 L 245.640625 289.925781 C 249.542969 293.003906 255.125 292.671875 258.632812 289.160156 L 288.542969 259.25 C 292.054688 255.742188 292.382812 250.160156 289.308594 246.257812 L 270.886719 222.890625 C 275.816406 214.105469 279.605469 204.855469 282.273438 195.359375 L 311.839844 191.859375 C 316.773438 191.273438 320.488281 187.09375 320.488281 182.128906 L 320.488281 139.832031 C 320.488281 134.867188 316.773438 130.6875 311.839844 130.105469 "/></g></g><mask id="3863db4698"><g filter="url(#1bc0740582)"><rect x="0" width="2250" y="0" height="809.999993" style="fill:#000000;fill-opacity:0.49;stroke:none;"/></g></mask></g><g style="fill:#ffffff;fill-opacity:1;"><g transform="translate(20.230123, 551.710048)"><path style="stroke:none" d="M 26.84375 0 L 26.84375 -308.8125 L 231.3125 -308.8125 L 231.3125 -254.984375 L 92.140625 -254.984375 L 92.140625 -181.40625 L 217.734375 -181.40625 L 217.734375 -127.5625 L 92.140625 -127.5625 L 92.140625 0 Z M 26.84375 0 "/></g></g><g style="fill:#ffffff;fill-opacity:1;"><g transform="translate(229.968582, 551.710048)"><path style="stroke:none" d="M 80.0625 0 L 10.109375 0 L 116.71875 -308.8125 L 200.859375 -308.8125 L 307.3125 0 L 237.34375 0 L 214.421875 -70.421875 L 102.984375 -70.421875 Z M 119.578125 -121.390625 L 197.984375 -121.390625 L 159.984375 -238.25 L 157.578125 -238.25 Z M 119.578125 -121.390625 "/></g></g><g style="fill:#ffffff;fill-opacity:1;"><g transform="translate(533.043063, 551.710048)"><path style="stroke:none" d="M 299.3125 -200.703125 L 233.265625 -200.703125 C 230.753906 -217.691406 223.515625 -231.035156 211.546875 -240.734375 C 199.585938 -250.429688 184.664062 -255.28125 166.78125 -255.28125 C 142.851562 -255.28125 123.675781 -246.507812 109.25 -228.96875 C 94.820312 -211.425781 87.609375 -186.570312 87.609375 -154.40625 C 87.609375 -121.4375 94.867188 -96.378906 109.390625 -79.234375 C 123.921875 -62.097656 142.898438 -53.53125 166.328125 -53.53125 C 183.710938 -53.53125 198.4375 -58.078125 210.5 -67.171875 C 222.5625 -76.273438 230.148438 -89.066406 233.265625 -105.546875 L 299.3125 -105.25 C 297 -86.351562 290.265625 -68.5625 279.109375 -51.875 C 267.953125 -35.1875 252.796875 -21.664062 233.640625 -11.3125 C 214.492188 -0.957031 191.703125 4.21875 165.265625 4.21875 C 137.722656 4.21875 113.117188 -2.007812 91.453125 -14.46875 C 69.785156 -26.9375 52.691406 -44.984375 40.171875 -68.609375 C 27.660156 -92.234375 21.40625 -120.832031 21.40625 -154.40625 C 21.40625 -188.082031 27.738281 -216.734375 40.40625 -240.359375 C 53.070312 -263.984375 70.257812 -282.003906 91.96875 -294.421875 C 113.6875 -306.835938 138.117188 -313.046875 165.265625 -313.046875 C 189.085938 -313.046875 210.570312 -308.644531 229.71875 -299.84375 C 248.875 -291.050781 264.554688 -278.285156 276.765625 -261.546875 C 288.984375 -244.804688 296.5 -224.523438 299.3125 -200.703125 Z M 299.3125 -200.703125 "/></g></g><g style="fill:#ffffff;fill-opacity:1;"><g transform="translate(852.402825, 551.710048)"><path style="stroke:none" d="M 92.140625 -308.8125 L 92.140625 0 L 26.84375 0 L 26.84375 -308.8125 Z M 92.140625 -308.8125 "/></g></g><g style="fill:#ffffff;fill-opacity:1;"><g transform="translate(971.521894, 551.710048)"><path style="stroke:none" d="M 26.84375 0 L 26.84375 -308.8125 L 92.140625 -308.8125 L 92.140625 -53.828125 L 224.53125 -53.828125 L 224.53125 0 Z M 26.84375 0 "/></g></g><g style="fill:#ffffff;fill-opacity:1;"><g transform="translate(1212.474041, 551.710048)"><path style="stroke:none" d="M 92.140625 -308.8125 L 92.140625 0 L 26.84375 0 L 26.84375 -308.8125 Z M 92.140625 -308.8125 "/></g></g><g style="fill:#ffffff;fill-opacity:1;"><g transform="translate(1331.593109, 551.710048)"><path style="stroke:none" d="M 194.375 -220 C 193.164062 -232.164062 187.960938 -241.613281 178.765625 -248.34375 C 169.566406 -255.082031 157.175781 -258.453125 141.59375 -258.453125 C 125.601562 -258.453125 113.335938 -255.1875 104.796875 -248.65625 C 96.253906 -242.125 91.984375 -233.878906 91.984375 -223.921875 C 91.785156 -212.867188 96.535156 -204.5 106.234375 -198.8125 C 115.929688 -193.132812 127.46875 -188.738281 140.84375 -185.625 L 168.578125 -178.984375 C 186.472656 -174.960938 202.378906 -169.128906 216.296875 -161.484375 C 230.222656 -153.847656 241.179688 -144.023438 249.171875 -132.015625 C 257.171875 -120.003906 261.171875 -105.40625 261.171875 -88.21875 C 261.066406 -59.96875 250.484375 -37.472656 229.421875 -20.734375 C 208.367188 -3.992188 178.992188 4.375 141.296875 4.375 C 103.796875 4.375 73.882812 -4.164062 51.5625 -21.25 C 29.25 -38.34375 17.691406 -63.578125 16.890625 -96.953125 L 80.0625 -96.953125 C 81.175781 -81.472656 87.285156 -69.835938 98.390625 -62.046875 C 109.492188 -54.253906 123.539062 -50.359375 140.53125 -50.359375 C 157.125 -50.359375 170.367188 -53.875 180.265625 -60.90625 C 190.171875 -67.945312 195.171875 -77.097656 195.265625 -88.359375 C 195.171875 -98.816406 190.597656 -106.859375 181.546875 -112.484375 C 172.503906 -118.117188 159.585938 -122.945312 142.796875 -126.96875 L 109.171875 -135.40625 C 83.140625 -141.644531 62.582031 -151.546875 47.5 -165.109375 C 32.414062 -178.679688 24.925781 -196.828125 25.03125 -219.546875 C 24.925781 -238.242188 29.925781 -254.601562 40.03125 -268.625 C 50.132812 -282.65625 64.03125 -293.566406 81.71875 -301.359375 C 99.414062 -309.148438 119.523438 -313.046875 142.046875 -313.046875 C 164.960938 -313.046875 184.988281 -309.125 202.125 -301.28125 C 219.269531 -293.4375 232.617188 -282.523438 242.171875 -268.546875 C 251.722656 -254.578125 256.648438 -238.394531 256.953125 -220 Z M 194.375 -220 "/></g></g><g style="fill:#01b3ef;fill-opacity:1;"><g transform="translate(1644.287735, 559.988267)"><path style="stroke:none" d="M 80.0625 0 L 10.109375 0 L 116.71875 -308.8125 L 200.859375 -308.8125 L 307.3125 0 L 237.34375 0 L 214.421875 -70.421875 L 102.984375 -70.421875 Z M 119.578125 -121.390625 L 197.984375 -121.390625 L 159.984375 -238.25 L 157.578125 -238.25 Z M 119.578125 -121.390625 "/></g></g><g style="fill:#01b3ef;fill-opacity:1;"><g transform="translate(1961.838032, 559.988267)"><path style="stroke:none" d="M 92.140625 -308.8125 L 92.140625 0 L 26.84375 0 L 26.84375 -308.8125 Z M 92.140625 -308.8125 "/></g></g></g></svg>